<svg width="1440" height="825" viewBox="0 0 1440 825" fill="none" xmlns="http://www.w3.org/2000/svg">
<path d="M0 621.398V0H1440V515.011C1404.65 199.073 1326.01 408.624 1240.16 739.069C1154.31 1069.51 994.87 323.192 978.998 408.624C963.126 494.056 1026.61 747.128 947.254 693.129C867.896 639.129 797.916 408.624 782.044 536.772C766.172 664.92 817.395 824.501 727.936 767.278C638.477 710.054 677.435 252.267 610.341 298.207C543.246 344.147 607.455 649.607 505.731 671.368C404.008 693.129 461.002 298.207 404.008 408.624C347.014 519.041 330.421 671.368 238.798 621.398C147.174 571.428 204.642 352.206 137.074 408.624C69.5062 465.041 0 621.398 0 621.398Z" fill="#874AF3" stroke="#874AF3"/>
</svg>
